PathFileType	4	(X/Y/Z)	c:/Users/goper/Files/vsCode/490R/osim_files/C11/C11_Static02.trc
DataRate	CameraRate	NumFrames	NumMarkers	Units                	OrigDataRate	OrigDataStartFrame	OrigNumFrames
120.00	120.00	9	36	mm	120.0	1	978
                Frame#	Time	LPSI			LASI			LTH1			LTH2			LTH3			LTH4			LLFE			LMFE			LSH1			LSH2			LSH3			LSH4			LLMA			LMMA			LCAL			LMTP			LTOE			LMTP			RPSI			RASI			RTH1			RTH2			RTH3			RTH4			RLFE			RMFE			RSH1			RSH2			RSH3			RSH4			RLMA			RMMA			RCAL			RMTP			RTOE			RMTP		
		X1	Y1	Z1	X2	Y2	Z2	X3	Y3	Z3	X4	Y4	Z4	X5	Y5	Z5	X6	Y6	Z6	X7	Y7	Z7	X8	Y8	Z8	X9	Y9	Z9	X10	Y10	Z10	X11	Y11	Z11	X12	Y12	Z12	X13	Y13	Z13	X14	Y14	Z14	X15	Y15	Z15	X16	Y16	Z16	X17	Y17	Z17	X18	Y18	Z18	X19	Y19	Z19	X20	Y20	Z20	X21	Y21	Z21	X22	Y22	Z22	X23	Y23	Z23	X24	Y24	Z24	X25	Y25	Z25	X26	Y26	Z26	X27	Y27	Z27	X28	Y28	Z28	X29	Y29	Z29	X30	Y30	Z30	X31	Y31	Z31	X32	Y32	Z32	X33	Y33	Z33	X34	Y34	Z34	X35	Y35	Z35	X36	Y36	Z36

1	0.00000	-392.19110	1027.46497	523.15137	-225.11618	1002.99030	438.51486	-334.03561	599.55670	360.94919	-322.51208	553.26306	361.70349	-273.85440	609.46002	360.87555	-272.34424	563.64429	364.09653	-323.94629	515.78302	360.35794	-304.82532	503.27521	469.79449	-375.61905	409.54959	347.14850	-373.95508	364.79636	344.10855	-313.78433	408.11160	337.76385	-320.68298	363.35324	336.20197	-336.22934	94.85906	378.71088	-301.94156	110.59840	469.41891	-391.84393	58.94390	435.52921	-225.49817	39.67047	340.45587	-149.83334	56.65127	405.48538	-187.21017	44.92729	453.94614	-382.20251	1039.60950	608.40747	-215.19884	999.08453	675.10718	-333.36377	605.67273	733.21307	-326.38477	561.95001	730.54999	-270.72842	607.78473	725.87341	-274.12869	564.88379	725.92853	-312.91898	520.42999	722.56702	-331.29797	495.50037	608.37573	-383.74771	412.55688	737.58362	-379.28256	366.78723	738.34283	-321.26794	411.50626	738.25940	-326.27524	364.43362	741.40076	-357.61841	97.50571	704.87152	-318.06973	106.70213	614.29590	-413.05087	60.50596	643.69641	-194.90477	48.98431	652.43219	-197.99925	61.21988	702.88928	-246.73367	39.27391	757.65125
2	0.00833	-391.86029	1027.14587	522.82153	-224.83824	1003.12726	438.28406	-333.68576	599.55426	360.69958	-322.18430	553.26727	361.50507	-273.48102	609.43774	360.73938	-272.06479	563.61761	364.01874	-323.65912	515.75232	360.16171	-305.50491	502.83353	469.71118	-375.38809	409.51685	346.95465	-373.78821	364.76434	343.97714	-313.57269	408.08853	337.66034	-320.51578	363.29892	336.10501	-336.26175	94.86117	378.69818	-302.02136	110.53593	469.42563	-391.88608	58.89345	435.54288	-225.53604	39.75102	340.38828	-149.83293	56.63832	405.50214	-187.23193	44.88997	453.96964	-381.98141	1039.36108	608.20325	-215.00302	999.13904	674.90649	-333.09686	605.61627	733.06207	-326.10507	561.87781	730.37476	-270.46445	607.76019	725.73920	-273.87265	564.84796	725.79761	-312.66260	520.36084	722.43317	-331.00467	495.42484	608.21265	-383.52399	412.51981	737.39459	-379.15323	366.74780	738.20099	-321.10675	411.44330	738.17084	-326.11603	364.40851	741.30249	-357.67328	97.46952	704.86066	-318.08902	106.67832	614.27802	-413.11807	60.41000	643.69885	-194.92513	48.96875	652.46942	-198.05321	61.23357	702.92529	-246.80193	39.25564	757.65216
3	0.01667	-391.59946	1026.88977	522.56201	-224.53407	1003.25690	438.08258	-333.32095	599.52185	360.45721	-321.91776	553.25867	361.34283	-273.19373	609.27612	360.74939	-271.74963	563.52222	363.96680	-323.40851	515.69733	360.01099	-305.24835	502.79727	469.59500	-375.74579	409.32089	347.09741	-373.58344	364.71765	343.84286	-313.43567	408.00690	337.56561	-320.33148	363.23184	336.00436	-336.27863	94.83009	378.68552	-302.03079	110.48432	469.43472	-391.88150	58.84271	435.54996	-225.55280	39.70420	340.40482	-149.85368	56.59882	405.52203	-187.22993	44.85814	453.96701	-381.76636	1039.13574	607.98309	-214.74870	999.19489	674.72437	-332.79553	605.55457	732.90723	-325.79520	561.81140	730.22156	-270.11798	607.71912	725.60986	-273.59454	564.79553	725.69482	-312.37360	520.28802	722.30182	-330.71222	495.34067	608.06244	-383.19992	412.45480	737.23395	-378.91711	366.68552	738.05566	-320.91095	411.34442	738.01721	-325.90558	364.33072	741.17969	-357.65909	97.39573	704.82458	-318.13449	106.60912	614.25165	-412.77768	60.44682	643.43408	-194.96753	48.92374	652.47321	-198.05225	61.20578	702.91852	-246.78174	39.23328	757.65546
4	0.02500	-391.39471	1026.70105	522.37103	-224.23375	1003.37775	437.87982	-332.91046	599.47083	360.23608	-321.56769	553.23047	361.18344	-272.84735	609.22650	360.62903	-271.47171	563.46295	363.88818	-323.13040	515.65753	359.88196	-305.03543	502.84375	469.48648	-374.95471	409.45325	346.64685	-373.39395	364.68842	343.72150	-313.21695	407.91568	337.48575	-320.15405	363.15570	335.92981	-336.28131	94.78131	378.67029	-302.02805	110.47903	469.42294	-391.82938	58.81131	435.50427	-225.53210	39.70134	340.41522	-149.84831	56.57821	405.49210	-187.21133	44.85386	453.95197	-381.55887	1038.94519	607.69452	-214.46413	999.30328	674.54126	-332.48648	605.52618	732.77740	-325.47900	561.77338	730.08234	-269.78979	607.72571	725.47864	-273.25717	564.80841	725.54901	-312.11206	520.26282	722.13971	-330.38480	495.27319	607.92419	-382.96097	412.46176	737.06116	-378.67926	366.67798	737.90814	-320.54791	411.38766	737.92200	-325.68628	364.30252	741.04181	-357.66721	97.39062	704.80396	-318.15359	106.54823	614.25439	-413.14685	60.29457	643.68396	-194.95166	48.91769	652.44128	-198.05309	61.21307	702.90302	-246.77318	39.20130	757.63208
5	0.03333	-391.22510	1026.57068	522.18768	-223.98473	1003.53790	437.66177	-332.54391	599.47540	360.05930	-321.20471	553.20966	361.03656	-272.52560	609.20966	360.52039	-271.15387	563.47089	363.78790	-322.83551	515.58807	359.79160	-304.84811	502.92780	469.33179	-374.73837	409.42789	346.50665	-373.16382	364.65854	343.59525	-313.03012	407.85236	337.37241	-319.99216	363.11829	335.83942	-336.28860	94.74477	378.67990	-302.03201	110.49958	469.42252	-391.81927	58.79456	435.48337	-225.53819	39.59799	340.48389	-149.84610	56.60110	405.47641	-187.19014	44.89586	453.92044	-381.33905	1038.75903	607.40009	-214.17679	999.48584	674.33649	-332.18600	605.53082	732.60590	-325.24451	561.77271	729.96448	-269.43707	607.77850	725.33087	-272.90836	564.81525	725.38165	-311.87482	520.26221	721.98651	-330.04987	495.19727	607.79309	-382.80884	412.51318	736.91046	-378.56586	366.70969	737.74182	-320.27750	411.38052	737.78436	-325.51489	364.33502	740.92615	-357.70615	97.43465	704.72595	-318.18692	106.51655	614.24072	-413.15707	60.27510	643.66779	-194.93272	48.94112	652.43018	-198.02153	61.25876	702.85052	-246.77911	39.19516	757.61243
6	0.04167	-391.01892	1026.46362	521.99231	-223.72589	1003.69019	437.48441	-332.16541	599.47101	359.88525	-320.84100	553.24518	360.89853	-272.15701	609.20538	360.40182	-270.77386	563.48761	363.66833	-322.53668	515.57544	359.67758	-304.65933	503.03482	469.20917	-374.53677	409.43661	346.38568	-372.92551	364.66483	343.45682	-312.81644	407.83856	337.25052	-319.80173	363.10800	335.73129	-336.27261	94.73717	378.68030	-301.96460	110.56300	469.40729	-391.84671	58.86131	435.45901	-225.52043	39.62614	340.49033	-149.84354	56.63364	405.46075	-187.15407	44.94184	453.89304	-381.16281	1038.61182	607.14539	-213.91110	999.64520	674.15436	-331.87564	605.59070	732.48773	-324.93903	561.82458	729.83777	-269.13211	607.79364	725.16656	-272.54373	564.85962	725.20703	-311.58392	520.29626	721.84650	-329.71213	495.13058	607.64435	-382.60776	412.59125	736.78430	-378.42648	366.77841	737.62573	-319.96375	411.41754	737.65857	-325.32916	364.30884	740.80072	-357.70612	97.51489	704.70319	-318.17810	106.51480	614.21985	-413.15924	60.28896	643.63654	-194.93008	48.96057	652.38971	-198.00420	61.31977	702.81903	-246.74869	39.23940	757.60303
7	0.05000	-390.83694	1026.34314	521.79358	-223.46330	1003.82684	437.29382	-331.81577	599.50238	359.65616	-320.53226	553.26349	360.75006	-271.83057	609.18695	360.29376	-270.38016	563.52222	363.53204	-322.21576	515.61523	359.52414	-304.44339	503.02603	469.07739	-374.32892	409.44101	346.28049	-372.74216	364.68130	343.34448	-312.63275	407.79807	337.15271	-319.58765	363.08542	335.62619	-336.26151	94.74061	378.67407	-301.96005	110.55608	469.39542	-391.83905	58.85862	435.45609	-225.49176	39.64719	340.48251	-149.82793	56.66520	405.46616	-187.14441	44.95967	453.91989	-380.99890	1038.42590	606.93280	-213.71339	999.71460	674.02264	-331.54410	605.62286	732.35980	-324.64517	561.81854	729.71729	-268.84631	607.76178	724.98779	-272.22778	564.84497	725.04382	-311.24463	520.27191	721.68250	-329.43674	495.07037	607.49695	-382.36026	412.59192	736.66016	-378.20200	366.76816	737.49744	-319.76260	411.38818	737.56342	-324.95193	364.09845	740.06354	-357.68155	97.49879	704.65723	-318.20938	106.49700	614.20099	-413.14706	60.25651	643.61517	-194.92281	48.99969	652.39630	-198.00734	61.35415	702.83270	-246.73227	39.26500	757.58917
8	0.05833	-390.67578	1026.20898	521.59198	-223.25403	1003.99188	437.13776	-331.53021	599.54266	359.43073	-320.26694	553.28314	360.59988	-271.48969	609.19696	360.18976	-270.08215	563.55035	363.41275	-321.94983	515.64081	359.35156	-304.24341	503.04724	469.01208	-374.13940	409.45529	346.17108	-372.55396	364.67685	343.21124	-312.41980	407.77298	337.06912	-319.40964	363.07898	335.52237	-336.26926	94.76903	378.67511	-301.96985	110.53821	469.38882	-391.81036	58.84946	435.48962	-225.51588	39.64540	340.47855	-149.82472	56.67321	405.50418	-187.16148	44.93431	453.93625	-380.85947	1038.20447	606.73206	-213.57233	999.73883	673.91644	-331.21225	605.56940	732.22473	-324.25659	561.78357	729.59259	-268.60181	607.72565	724.83191	-271.95160	564.81909	724.90808	-310.92596	520.25037	721.56525	-329.18478	495.04108	607.34802	-382.11868	412.55923	736.53357	-377.98547	366.72092	737.38019	-319.51706	411.36813	737.45166	-324.77597	364.05017	739.95581	-357.60309	97.41773	704.64386	-318.21506	106.50062	614.16248	-413.15884	60.20056	643.59802	-194.91751	49.02006	652.41583	-198.04034	61.34267	702.85913	-246.73288	39.28766	757.59595
9	0.06667	-390.49747	1026.04248	521.37347	-222.99979	1004.18506	436.97800	-331.25665	599.57379	359.26108	-320.01825	553.34070	360.43796	-271.17719	609.22351	360.06079	-269.81305	563.59045	363.33386	-321.69318	515.69873	359.21371	-304.10818	503.03290	468.90213	-373.91867	409.50589	346.05353	-372.38455	364.71750	343.10251	-312.20557	407.77075	336.94058	-319.22388	363.08200	335.42322	-336.30573	94.83322	378.66803	-301.96747	110.56593	469.40189	-391.84512	58.85599	435.52036	-225.50174	39.79585	340.40936	-149.85736	56.68193	405.52792	-187.19548	44.93084	453.96036	-380.79086	1038.00842	606.60626	-213.45520	999.81805	673.81482	-330.94034	605.59381	732.07312	-323.97104	561.78656	729.46405	-268.37772	607.71814	724.69464	-271.75812	564.82965	724.79999	-310.67752	520.26910	721.46851	-328.94003	495.03409	607.21838	-381.90222	412.54712	736.41296	-377.92468	366.73737	737.36066	-319.37585	411.34552	737.38489	-324.65714	363.98639	739.89825	-357.60873	97.41294	704.63287	-318.24643	106.51595	614.13873	-413.20200	60.18812	643.60382	-194.97679	49.01133	652.43347	-198.07620	61.39121	702.87958	-246.75056	39.33296	757.61053
